<mxfile host="65bd71144e">
    <diagram id="TVnLQ6pOlH6w7L9_tPeT" name="Страница — 1">
        <mxGraphModel dx="-488" dy="2091" grid="1" gridSize="10" guides="1" tooltips="1" connect="1" arrows="1" fold="1" page="1" pageScale="1" pageWidth="827" pageHeight="1169" math="0" shadow="0">
            <root>
                <mxCell id="0"/>
                <mxCell id="1" parent="0"/>
                <mxCell id="2" value="route" style="rounded=0;whiteSpace=wrap;html=1;" vertex="1" parent="1">
                    <mxGeometry x="2540" y="-845" width="120" height="60" as="geometry"/>
                </mxCell>
                <mxCell id="3" value="" style="edgeStyle=none;html=1;entryX=0.5;entryY=1;entryDx=0;entryDy=0;" edge="1" parent="1" source="5" target="37">
                    <mxGeometry x="0.0001" relative="1" as="geometry">
                        <mxPoint as="offset"/>
                    </mxGeometry>
                </mxCell>
                <mxCell id="4" value="array" style="edgeStyle=none;html=1;" edge="1" parent="1" source="5" target="8">
                    <mxGeometry relative="1" as="geometry">
                        <Array as="points">
                            <mxPoint x="2430" y="-230"/>
                        </Array>
                    </mxGeometry>
                </mxCell>
                <mxCell id="5" value="controller" style="rounded=0;whiteSpace=wrap;html=1;" vertex="1" parent="1">
                    <mxGeometry x="2253" y="-379" width="120" height="60" as="geometry"/>
                </mxCell>
                <mxCell id="6" value="params" style="edgeStyle=none;html=1;" edge="1" parent="1" source="8" target="5">
                    <mxGeometry relative="1" as="geometry">
                        <Array as="points">
                            <mxPoint x="2200" y="-230"/>
                        </Array>
                    </mxGeometry>
                </mxCell>
                <mxCell id="7" value="array" style="edgeStyle=none;html=1;" edge="1" parent="1" source="8" target="12">
                    <mxGeometry relative="1" as="geometry">
                        <Array as="points">
                            <mxPoint x="2400" y="-10"/>
                        </Array>
                    </mxGeometry>
                </mxCell>
                <mxCell id="8" value="service" style="rounded=0;whiteSpace=wrap;html=1;" vertex="1" parent="1">
                    <mxGeometry x="2250" y="-136.5" width="120" height="60" as="geometry"/>
                </mxCell>
                <mxCell id="9" style="edgeStyle=none;html=1;" edge="1" parent="1" source="12" target="8">
                    <mxGeometry relative="1" as="geometry">
                        <Array as="points">
                            <mxPoint x="2220" y="-10"/>
                        </Array>
                    </mxGeometry>
                </mxCell>
                <mxCell id="10" value="&amp;nbsp;" style="edgeLabel;html=1;align=center;verticalAlign=middle;resizable=0;points=[];" connectable="0" vertex="1" parent="9">
                    <mxGeometry x="-0.1568" y="1" relative="1" as="geometry">
                        <mxPoint as="offset"/>
                    </mxGeometry>
                </mxCell>
                <mxCell id="11" value="model collection" style="edgeLabel;html=1;align=center;verticalAlign=middle;resizable=0;points=[];" connectable="0" vertex="1" parent="9">
                    <mxGeometry x="-0.1664" y="-3" relative="1" as="geometry">
                        <mxPoint as="offset"/>
                    </mxGeometry>
                </mxCell>
                <mxCell id="12" value="repository" style="rounded=0;whiteSpace=wrap;html=1;" vertex="1" parent="1">
                    <mxGeometry x="2250" y="57" width="120" height="60" as="geometry"/>
                </mxCell>
                <mxCell id="13" value="&lt;font style=&quot;color: light-dark(rgb(0, 0, 0), rgb(255, 255, 255));&quot;&gt;&lt;span style=&quot;border-color: rgb(0, 0, 0); font-family: Helvetica; font-size: 12px; font-style: normal; font-variant-ligatures: normal; font-variant-caps: normal; font-weight: 400; letter-spacing: normal; orphans: 2; text-indent: 0px; text-transform: none; widows: 2; word-spacing: 0px; -webkit-text-stroke-width: 0px; text-decoration-thickness: initial; text-decoration-style: initial; text-decoration-color: initial; text-align: center; float: none; display: inline !important;&quot;&gt;create -&amp;gt; querybuilder&lt;br style=&quot;border-color: rgb(0, 0, 0);&quot;&gt;read-&amp;gt; querybuilder&lt;br style=&quot;border-color: rgb(0, 0, 0);&quot;&gt;update -&amp;gt;&amp;nbsp;&lt;/span&gt;&lt;span style=&quot;border-color: rgb(0, 0, 0); font-family: Helvetica; font-size: 12px; font-style: normal; font-variant-ligatures: normal; font-variant-caps: normal; font-weight: 400; letter-spacing: normal; orphans: 2; text-indent: 0px; text-transform: none; widows: 2; word-spacing: 0px; -webkit-text-stroke-width: 0px; text-decoration-thickness: initial; text-decoration-style: initial; text-decoration-color: initial; text-align: center;&quot;&gt;querybuilder&lt;/span&gt;&lt;br style=&quot;border-color: rgb(0, 0, 0); font-family: Helvetica; font-size: 12px; font-style: normal; font-variant-ligatures: normal; font-variant-caps: normal; font-weight: 400; letter-spacing: normal; orphans: 2; text-indent: 0px; text-transform: none; widows: 2; word-spacing: 0px; -webkit-text-stroke-width: 0px; text-decoration-thickness: initial; text-decoration-style: initial; text-decoration-color: initial; text-align: center;&quot;&gt;&lt;span style=&quot;border-color: rgb(0, 0, 0); font-family: Helvetica; font-size: 12px; font-style: normal; font-variant-ligatures: normal; font-variant-caps: normal; font-weight: 400; letter-spacing: normal; orphans: 2; text-indent: 0px; text-transform: none; widows: 2; word-spacing: 0px; -webkit-text-stroke-width: 0px; text-decoration-thickness: initial; text-decoration-style: initial; text-decoration-color: initial; text-align: center; float: none; display: inline !important;&quot;&gt;delete -&amp;gt; bool&lt;/span&gt;&lt;/font&gt;" style="edgeStyle=none;html=1;" edge="1" parent="1" source="16" target="12">
                    <mxGeometry x="-0.0127" relative="1" as="geometry">
                        <Array as="points">
                            <mxPoint x="2210" y="190"/>
                        </Array>
                        <mxPoint as="offset"/>
                    </mxGeometry>
                </mxCell>
                <mxCell id="14" style="edgeStyle=none;html=1;" edge="1" parent="1" source="16" target="12">
                    <mxGeometry relative="1" as="geometry">
                        <Array as="points">
                            <mxPoint x="2430" y="190"/>
                        </Array>
                    </mxGeometry>
                </mxCell>
                <mxCell id="15" value="&lt;font style=&quot;color: light-dark(rgb(0, 0, 0), rgb(255, 255, 255));&quot;&gt;&lt;span style=&quot;scrollbar-color: light-dark(#e2e2e2, #4b4b4b)&lt;br/&gt;&#x9;&#x9;&#x9;&#x9;&#x9;light-dark(#fbfbfb, var(--dark-panel-color)); font-size: 12px;&quot;&gt;create -&amp;gt; array or params&lt;br style=&quot;scrollbar-color: light-dark(#e2e2e2, #4b4b4b)&lt;br/&gt;&#x9;&#x9;&#x9;&#x9;&#x9;light-dark(#fbfbfb, var(--dark-panel-color));&quot;&gt;read-&amp;gt; array&lt;br style=&quot;scrollbar-color: light-dark(#e2e2e2, #4b4b4b)&lt;br/&gt;&#x9;&#x9;&#x9;&#x9;&#x9;light-dark(#fbfbfb, var(--dark-panel-color));&quot;&gt;update -&amp;gt; array&amp;nbsp;&amp;nbsp;&lt;/span&gt;&lt;br style=&quot;scrollbar-color: light-dark(#e2e2e2, #4b4b4b)&lt;br/&gt;&#x9;&#x9;&#x9;&#x9;&#x9;light-dark(#fbfbfb, var(--dark-panel-color)); font-size: 12px;&quot;&gt;&lt;span style=&quot;scrollbar-color: light-dark(#e2e2e2, #4b4b4b)&lt;br/&gt;&#x9;&#x9;&#x9;&#x9;&#x9;light-dark(#fbfbfb, var(--dark-panel-color)); font-size: 12px;&quot;&gt;delete -&amp;gt; array&lt;/span&gt;&lt;/font&gt;" style="edgeLabel;html=1;align=center;verticalAlign=middle;resizable=0;points=[];labelBackgroundColor=default;" vertex="1" connectable="0" parent="14">
                    <mxGeometry x="-0.0748" y="-4" relative="1" as="geometry">
                        <mxPoint x="3" y="-8" as="offset"/>
                    </mxGeometry>
                </mxCell>
                <mxCell id="16" value="model" style="rounded=0;whiteSpace=wrap;html=1;" vertex="1" parent="1">
                    <mxGeometry x="2250" y="260" width="120" height="60" as="geometry"/>
                </mxCell>
                <mxCell id="17" value="ProductModel" style="text;html=1;strokeColor=none;fillColor=none;align=center;verticalAlign=middle;whiteSpace=wrap;rounded=0;" vertex="1" parent="1">
                    <mxGeometry x="2465" y="267.5" width="110" height="45" as="geometry"/>
                </mxCell>
                <mxCell id="18" value="ProductRepository" style="text;html=1;strokeColor=none;fillColor=none;align=center;verticalAlign=middle;whiteSpace=wrap;rounded=0;" vertex="1" parent="1">
                    <mxGeometry x="2460" y="72" width="120" height="45" as="geometry"/>
                </mxCell>
                <mxCell id="19" value="ProductService" style="text;html=1;strokeColor=none;fillColor=none;align=center;verticalAlign=middle;whiteSpace=wrap;rounded=0;" vertex="1" parent="1">
                    <mxGeometry x="2470" y="-136.5" width="110" height="65" as="geometry"/>
                </mxCell>
                <mxCell id="20" value="ProductController" style="text;html=1;strokeColor=none;fillColor=none;align=center;verticalAlign=middle;whiteSpace=wrap;rounded=0;" vertex="1" parent="1">
                    <mxGeometry x="2468" y="-376.5" width="115" height="55" as="geometry"/>
                </mxCell>
                <mxCell id="21" value="ProductRoute" style="text;html=1;strokeColor=none;fillColor=none;align=center;verticalAlign=middle;whiteSpace=wrap;rounded=0;" vertex="1" parent="1">
                    <mxGeometry x="2767" y="-840" width="110" height="50" as="geometry"/>
                </mxCell>
                <mxCell id="24" value="" style="endArrow=classic;html=1;entryX=0;entryY=0.5;entryDx=0;entryDy=0;exitX=0;exitY=0.5;exitDx=0;exitDy=0;startArrow=classic;startFill=1;fillColor=#a20025;strokeColor=#6F0000;rounded=0;" edge="1" parent="1" source="16" target="5">
                    <mxGeometry width="50" height="50" relative="1" as="geometry">
                        <mxPoint x="2160" y="-150" as="sourcePoint"/>
                        <mxPoint x="1970" y="-240" as="targetPoint"/>
                        <Array as="points">
                            <mxPoint x="1950" y="-80"/>
                        </Array>
                    </mxGeometry>
                </mxCell>
                <mxCell id="25" value="перескакивать нельзя" style="text;html=1;strokeColor=none;fillColor=none;align=center;verticalAlign=middle;whiteSpace=wrap;rounded=0;" vertex="1" parent="1">
                    <mxGeometry x="1840" y="-120" width="110" height="57" as="geometry"/>
                </mxCell>
                <mxCell id="27" value="роут канкретной направленности" style="text;html=1;strokeColor=none;fillColor=none;align=center;verticalAlign=middle;whiteSpace=wrap;rounded=0;" vertex="1" parent="1">
                    <mxGeometry x="2932" y="-850" width="120" height="70" as="geometry"/>
                </mxCell>
                <mxCell id="28" value="вызываются только те функции которые есть в сервисе" style="text;html=1;strokeColor=none;fillColor=none;align=center;verticalAlign=middle;whiteSpace=wrap;rounded=0;" vertex="1" parent="1">
                    <mxGeometry x="2635.5" y="-390" width="120" height="82" as="geometry"/>
                </mxCell>
                <mxCell id="29" value="вызывается одна из функий в репозитории + дополнительные по необходимости в других репозиториях" style="text;html=1;strokeColor=none;fillColor=none;align=center;verticalAlign=middle;whiteSpace=wrap;rounded=0;" vertex="1" parent="1">
                    <mxGeometry x="2650" y="-145" width="110" height="82" as="geometry"/>
                </mxCell>
                <mxCell id="30" value="крудовские операции&lt;br&gt;&lt;br&gt;только операции с атрибутами ОДНОЙ модели&lt;br&gt;create read update&lt;br&gt;delete" style="text;html=1;strokeColor=none;fillColor=none;align=center;verticalAlign=middle;whiteSpace=wrap;rounded=0;" vertex="1" parent="1">
                    <mxGeometry x="2630" y="30" width="120" height="147" as="geometry"/>
                </mxCell>
                <mxCell id="31" value="" style="edgeStyle=none;rounded=0;html=1;startArrow=classic;startFill=1;endArrow=classic;endFill=1;" edge="1" parent="1" source="33" target="5">
                    <mxGeometry relative="1" as="geometry"/>
                </mxCell>
                <mxCell id="32" style="edgeStyle=none;rounded=0;html=1;entryX=0.5;entryY=1;entryDx=0;entryDy=0;startArrow=classic;startFill=1;endArrow=classic;endFill=1;" edge="1" parent="1" source="33" target="2">
                    <mxGeometry relative="1" as="geometry"/>
                </mxCell>
                <mxCell id="33" value="request" style="rounded=0;whiteSpace=wrap;html=1;" vertex="1" parent="1">
                    <mxGeometry x="2540" y="-720" width="120" height="60" as="geometry"/>
                </mxCell>
                <mxCell id="34" value="ProductRequest" style="text;html=1;strokeColor=none;fillColor=none;align=center;verticalAlign=middle;whiteSpace=wrap;rounded=0;" vertex="1" parent="1">
                    <mxGeometry x="2782.5" y="-710" width="60" height="30" as="geometry"/>
                </mxCell>
                <mxCell id="35" value="валидация и преобразование переменных&amp;nbsp; для работы в контроллере(опционально)" style="text;html=1;strokeColor=none;fillColor=none;align=center;verticalAlign=middle;whiteSpace=wrap;rounded=0;" vertex="1" parent="1">
                    <mxGeometry x="2923.5" y="-735" width="137" height="80" as="geometry"/>
                </mxCell>
                <mxCell id="36" value="описание модели + связи больше ничего" style="text;html=1;strokeColor=none;fillColor=none;align=center;verticalAlign=middle;whiteSpace=wrap;rounded=0;" vertex="1" parent="1">
                    <mxGeometry x="2660" y="275" width="60" height="30" as="geometry"/>
                </mxCell>
                <mxCell id="37" value="responce" style="rounded=0;whiteSpace=wrap;html=1;" vertex="1" parent="1">
                    <mxGeometry x="1960" y="-750" width="120" height="60" as="geometry"/>
                </mxCell>
            </root>
        </mxGraphModel>
    </diagram>
</mxfile>